<svg width="89" height="18" viewBox="0 0 89 18" fill="none" xmlns="http://www.w3.org/2000/svg">
    <path d="M5.472 17.192C4.544 17.192 3.728 17.008 3.024 16.64C2.32 16.272 1.776 15.76 1.392 15.104C1.008 14.432 0.816 13.664 0.816 12.8V12.032C0.816 11.952 0.84 11.888 0.888 11.84C0.952 11.776 1.024 11.744 1.104 11.744H3.864C3.944 11.744 4.008 11.776 4.056 11.84C4.12 11.888 4.152 11.952 4.152 12.032V12.632C4.152 13.128 4.272 13.528 4.512 13.832C4.768 14.136 5.088 14.288 5.472 14.288C5.856 14.288 6.176 14.144 6.432 13.856C6.688 13.568 6.816 13.192 6.816 12.728C6.816 12.248 6.656 11.84 6.336 11.504C6.032 11.152 5.416 10.64 4.488 9.968C3.688 9.392 3.04 8.88 2.544 8.432C2.048 7.984 1.624 7.432 1.272 6.776C0.92 6.12 0.744 5.36 0.744 4.496C0.744 3.136 1.168 2.048 2.016 1.232C2.864 0.416 3.976 0.0079999 5.352 0.0079999C6.76 0.0079999 7.896 0.432001 8.76 1.28C9.624 2.128 10.056 3.24 10.056 4.616V5.192C10.056 5.272 10.024 5.344 9.96 5.408C9.912 5.456 9.848 5.48 9.768 5.48H7.008C6.928 5.48 6.856 5.456 6.792 5.408C6.744 5.344 6.72 5.272 6.72 5.192V4.544C6.72 4.048 6.592 3.656 6.336 3.368C6.096 3.064 5.768 2.912 5.352 2.912C4.968 2.912 4.656 3.056 4.416 3.344C4.192 3.616 4.08 4 4.08 4.496C4.08 4.976 4.232 5.4 4.536 5.768C4.84 6.136 5.432 6.648 6.312 7.304C7.304 8.024 8.048 8.616 8.544 9.08C9.056 9.528 9.448 10.032 9.72 10.592C10.008 11.152 10.152 11.816 10.152 12.584C10.152 13.992 9.72 15.112 8.856 15.944C7.992 16.776 6.864 17.192 5.472 17.192ZM21.6555 0.176001C22.5355 0.176001 23.3195 0.392001 24.0075 0.823999C24.6955 1.256 25.2235 1.864 25.5915 2.648C25.9755 3.416 26.1675 4.296 26.1675 5.288C26.1675 6.776 25.7675 7.968 24.9675 8.864C24.1675 9.76 23.1195 10.208 21.8235 10.208H20.0235C19.9435 10.208 19.9035 10.248 19.9035 10.328V16.712C19.9035 16.792 19.8715 16.864 19.8075 16.928C19.7595 16.976 19.6955 17 19.6155 17H16.8075C16.7275 17 16.6555 16.976 16.5915 16.928C16.5435 16.864 16.5195 16.792 16.5195 16.712V0.464C16.5195 0.384 16.5435 0.32 16.5915 0.271999C16.6555 0.208 16.7275 0.176001 16.8075 0.176001H21.6555ZM21.0795 7.568C21.5915 7.568 21.9995 7.376 22.3035 6.992C22.6235 6.592 22.7835 6.048 22.7835 5.36C22.7835 4.656 22.6235 4.104 22.3035 3.704C21.9995 3.304 21.5915 3.104 21.0795 3.104H20.0235C19.9435 3.104 19.9035 3.144 19.9035 3.224V7.448C19.9035 7.528 19.9435 7.568 20.0235 7.568H21.0795ZM38.9514 17C38.7594 17 38.6554 16.912 38.6394 16.736L38.2554 14.432C38.2554 14.352 38.2074 14.312 38.1114 14.312H35.1114C35.0154 14.312 34.9674 14.344 34.9674 14.408L34.5354 16.736C34.5194 16.912 34.4154 17 34.2234 17H31.4154C31.2074 17 31.1274 16.896 31.1754 16.688L34.7034 0.464C34.7354 0.288 34.8394 0.2 35.0154 0.2H38.2554C38.4314 0.2 38.5354 0.288 38.5674 0.464L42.0714 16.688L42.0954 16.784C42.0954 16.928 42.0074 17 41.8314 17H38.9514ZM35.4954 11.576C35.4794 11.656 35.5194 11.696 35.6154 11.696H37.6794C37.7434 11.696 37.7754 11.656 37.7754 11.576L36.7674 5.384C36.7514 5.336 36.7274 5.312 36.6954 5.312C36.6634 5.312 36.6394 5.336 36.6234 5.384L35.4954 11.576ZM52.5701 17.192C51.1301 17.192 49.9701 16.768 49.0901 15.92C48.2261 15.056 47.7941 13.904 47.7941 12.464V4.688C47.7941 3.264 48.2261 2.128 49.0901 1.28C49.9701 0.432001 51.1301 0.0079999 52.5701 0.0079999C54.0261 0.0079999 55.1861 0.432001 56.0501 1.28C56.9301 2.128 57.3701 3.264 57.3701 4.688V4.952C57.3701 5.032 57.3381 5.104 57.2741 5.168C57.2261 5.216 57.1621 5.24 57.0821 5.24L54.2741 5.36C54.0821 5.36 53.9861 5.272 53.9861 5.096V4.472C53.9861 4.008 53.8581 3.632 53.6021 3.344C53.3461 3.056 53.0021 2.912 52.5701 2.912C52.1541 2.912 51.8181 3.056 51.5621 3.344C51.3061 3.632 51.1781 4.008 51.1781 4.472V12.752C51.1781 13.216 51.3061 13.592 51.5621 13.88C51.8181 14.152 52.1541 14.288 52.5701 14.288C53.0021 14.288 53.3461 14.152 53.6021 13.88C53.8581 13.592 53.9861 13.216 53.9861 12.752V12.104C53.9861 12.024 54.0101 11.96 54.0581 11.912C54.1221 11.848 54.1941 11.816 54.2741 11.816L57.0821 11.936C57.2741 11.936 57.3701 12.024 57.3701 12.2V12.464C57.3701 13.904 56.9301 15.056 56.0501 15.92C55.1701 16.768 54.0101 17.192 52.5701 17.192ZM72.7749 2.816C72.7749 2.896 72.7429 2.968 72.6789 3.032C72.6309 3.08 72.5669 3.104 72.4869 3.104H67.4709C67.3909 3.104 67.3509 3.144 67.3509 3.224V7.016C67.3509 7.096 67.3909 7.136 67.4709 7.136H70.3509C70.4309 7.136 70.4949 7.168 70.5429 7.232C70.6069 7.28 70.6389 7.344 70.6389 7.424V9.752C70.6389 9.832 70.6069 9.904 70.5429 9.968C70.4949 10.016 70.4309 10.04 70.3509 10.04H67.4709C67.3909 10.04 67.3509 10.08 67.3509 10.16V13.976C67.3509 14.056 67.3909 14.096 67.4709 14.096H72.4869C72.5669 14.096 72.6309 14.128 72.6789 14.192C72.7429 14.24 72.7749 14.304 72.7749 14.384V16.712C72.7749 16.792 72.7429 16.864 72.6789 16.928C72.6309 16.976 72.5669 17 72.4869 17H64.2549C64.1749 17 64.1029 16.976 64.0389 16.928C63.9909 16.864 63.9669 16.792 63.9669 16.712V0.487999C63.9669 0.408 63.9909 0.344 64.0389 0.296C64.1029 0.231999 64.1749 0.2 64.2549 0.2H72.4869C72.5669 0.2 72.6309 0.231999 72.6789 0.296C72.7429 0.344 72.7749 0.408 72.7749 0.487999V2.816ZM79.5784 17C79.4984 17 79.4264 16.976 79.3624 16.928C79.3144 16.864 79.2904 16.792 79.2904 16.712V0.487999C79.2904 0.408 79.3144 0.344 79.3624 0.296C79.4264 0.231999 79.4984 0.2 79.5784 0.2H83.9224C85.3784 0.2 86.5464 0.624 87.4264 1.472C88.3064 2.32 88.7464 3.448 88.7464 4.856V12.344C88.7464 13.752 88.3064 14.88 87.4264 15.728C86.5464 16.576 85.3784 17 83.9224 17H79.5784ZM82.6744 13.976C82.6744 14.056 82.7144 14.096 82.7944 14.096L83.8744 14.072C84.3064 14.056 84.6584 13.872 84.9304 13.52C85.2024 13.168 85.3464 12.704 85.3624 12.128V5.072C85.3624 4.464 85.2264 3.984 84.9544 3.632C84.6824 3.28 84.3144 3.104 83.8504 3.104H82.7944C82.7144 3.104 82.6744 3.144 82.6744 3.224V13.976Z" fill="white"/>
</svg>
